<svg width="124" height="37" viewBox="0 0 124 37" fill="none" xmlns="http://www.w3.org/2000/svg">
<path d="M47.04 25.1162C46.9067 25.1162 46.7933 25.0695 46.7 24.9762C46.6067 24.8829 46.56 24.7695 46.56 24.6362V11.6162C46.56 11.4695 46.6 11.3495 46.68 11.2562C46.7733 11.1629 46.8933 11.1162 47.04 11.1162H55.72C55.8667 11.1162 55.9867 11.1629 56.08 11.2562C56.1733 11.3495 56.22 11.4695 56.22 11.6162V13.0162C56.22 13.1629 56.1733 13.2829 56.08 13.3762C55.9867 13.4562 55.8667 13.4962 55.72 13.4962H49.3V17.2962H55.32C55.4667 17.2962 55.5867 17.3429 55.68 17.4362C55.7733 17.5295 55.82 17.6495 55.82 17.7962V19.1962C55.82 19.3429 55.7733 19.4629 55.68 19.5562C55.5867 19.6362 55.4667 19.6762 55.32 19.6762H49.3V24.6362C49.3 24.7829 49.2533 24.9029 49.16 24.9962C49.0667 25.0762 48.9467 25.1162 48.8 25.1162H47.04ZM58.7317 12.9962C58.5984 12.9962 58.4851 12.9495 58.3917 12.8562C58.2984 12.7629 58.2517 12.6495 58.2517 12.5162V11.0762C58.2517 10.9429 58.2984 10.8295 58.3917 10.7362C58.4851 10.6429 58.5984 10.5962 58.7317 10.5962H60.5517C60.6851 10.5962 60.7984 10.6429 60.8917 10.7362C60.9984 10.8295 61.0517 10.9429 61.0517 11.0762V12.5162C61.0517 12.6495 61.0051 12.7629 60.9117 12.8562C60.8184 12.9495 60.6984 12.9962 60.5517 12.9962H58.7317ZM58.8117 25.1162C58.6784 25.1162 58.5651 25.0695 58.4717 24.9762C58.3784 24.8829 58.3317 24.7695 58.3317 24.6362V15.1962C58.3317 15.0629 58.3784 14.9495 58.4717 14.8562C58.5651 14.7629 58.6784 14.7162 58.8117 14.7162H60.4717C60.6184 14.7162 60.7317 14.7629 60.8117 14.8562C60.9051 14.9362 60.9517 15.0495 60.9517 15.1962V24.6362C60.9517 24.7695 60.9051 24.8829 60.8117 24.9762C60.7317 25.0695 60.6184 25.1162 60.4717 25.1162H58.8117ZM64.0852 25.1162C63.9518 25.1162 63.8385 25.0695 63.7452 24.9762C63.6518 24.8829 63.6052 24.7695 63.6052 24.6362V15.2162C63.6052 15.0829 63.6518 14.9695 63.7452 14.8762C63.8385 14.7695 63.9518 14.7162 64.0852 14.7162H65.7052C65.8518 14.7162 65.9718 14.7629 66.0652 14.8562C66.1585 14.9495 66.2052 15.0695 66.2052 15.2162V16.0362C66.5252 15.6095 66.9252 15.2829 67.4052 15.0562C67.8985 14.8295 68.4585 14.7162 69.0852 14.7162H69.9052C70.0518 14.7162 70.1652 14.7629 70.2452 14.8562C70.3385 14.9362 70.3852 15.0495 70.3852 15.1962V16.6362C70.3852 16.7695 70.3385 16.8829 70.2452 16.9762C70.1652 17.0695 70.0518 17.1162 69.9052 17.1162H68.3452C67.7185 17.1162 67.2252 17.2962 66.8652 17.6562C66.5052 18.0162 66.3252 18.5095 66.3252 19.1362V24.6362C66.3252 24.7695 66.2785 24.8829 66.1852 24.9762C66.0918 25.0695 65.9718 25.1162 65.8252 25.1162H64.0852ZM76.2883 25.3162C74.8083 25.3162 73.6283 24.8895 72.7483 24.0362C71.8816 23.1695 71.4216 21.9562 71.3683 20.3962L71.3483 19.8962L71.3683 19.3962C71.4349 17.8762 71.9016 16.6829 72.7683 15.8162C73.6483 14.9495 74.8216 14.5162 76.2883 14.5162C77.8616 14.5162 79.0749 14.9962 79.9283 15.9562C80.7949 16.9162 81.2283 18.1962 81.2283 19.7962V20.2162C81.2283 20.3495 81.1816 20.4629 81.0883 20.5562C80.9949 20.6495 80.8749 20.6962 80.7283 20.6962H74.0883V20.8562C74.1149 21.5895 74.3149 22.2095 74.6883 22.7162C75.0749 23.2095 75.6016 23.4562 76.2683 23.4562C77.0549 23.4562 77.6883 23.1495 78.1683 22.5362C78.2883 22.3895 78.3816 22.2962 78.4483 22.2562C78.5283 22.2162 78.6416 22.1962 78.7883 22.1962H80.5083C80.6283 22.1962 80.7283 22.2362 80.8083 22.3162C80.9016 22.3829 80.9483 22.4695 80.9483 22.5762C80.9483 22.8962 80.7549 23.2762 80.3683 23.7162C79.9949 24.1429 79.4549 24.5162 78.7483 24.8362C78.0416 25.1562 77.2216 25.3162 76.2883 25.3162ZM78.5083 19.0162V18.9562C78.5083 18.1695 78.3083 17.5362 77.9083 17.0562C77.5216 16.5762 76.9816 16.3362 76.2883 16.3362C75.5949 16.3362 75.0549 16.5762 74.6683 17.0562C74.2816 17.5362 74.0883 18.1695 74.0883 18.9562V19.0162H78.5083ZM87.4313 25.1162C87.0046 25.1162 86.7313 24.9162 86.6113 24.5162L82.5313 11.7162L82.4913 11.5362C82.4913 11.4295 82.5313 11.3362 82.6113 11.2562C82.7046 11.1629 82.8113 11.1162 82.9313 11.1162H85.4113C85.5979 11.1162 85.7513 11.1695 85.8713 11.2762C86.0046 11.3829 86.0913 11.5029 86.1313 11.6362L88.9713 20.8762L91.7913 11.6362C91.8313 11.5029 91.9113 11.3829 92.0312 11.2762C92.1646 11.1695 92.3246 11.1162 92.5113 11.1162H95.0113C95.1179 11.1162 95.2113 11.1629 95.2913 11.2562C95.3846 11.3362 95.4313 11.4295 95.4313 11.5362L95.3913 11.7162L91.3113 24.5162C91.1913 24.9162 90.9179 25.1162 90.4913 25.1162H87.4313ZM97.7984 25.1162C97.6651 25.1162 97.5451 25.0695 97.4384 24.9762C97.3451 24.8695 97.2984 24.7495 97.2984 24.6162V11.6162C97.2984 11.4695 97.3451 11.3495 97.4384 11.2562C97.5451 11.1629 97.6651 11.1162 97.7984 11.1162H103.398C105.105 11.1162 106.445 11.5095 107.418 12.2962C108.405 13.0829 108.898 14.2295 108.898 15.7362C108.898 17.2295 108.412 18.3562 107.438 19.1162C106.465 19.8629 105.118 20.2362 103.398 20.2362H101.018V24.6162C101.018 24.7629 100.965 24.8829 100.858 24.9762C100.765 25.0695 100.645 25.1162 100.498 25.1162H97.7984ZM103.298 17.4762C103.885 17.4762 104.345 17.3295 104.678 17.0362C105.012 16.7295 105.178 16.2829 105.178 15.6962C105.178 15.1495 105.018 14.7162 104.698 14.3962C104.392 14.0629 103.925 13.8962 103.298 13.8962H100.958V17.4762H103.298ZM111.314 25.1162C111.181 25.1162 111.061 25.0695 110.954 24.9762C110.861 24.8695 110.814 24.7495 110.814 24.6162V11.6162C110.814 11.4695 110.861 11.3495 110.954 11.2562C111.061 11.1629 111.181 11.1162 111.314 11.1162H113.434C113.767 11.1162 113.994 11.2429 114.114 11.4962L118.994 19.1762V11.6162C118.994 11.4695 119.041 11.3495 119.134 11.2562C119.241 11.1629 119.361 11.1162 119.494 11.1162H121.894C122.041 11.1162 122.161 11.1629 122.254 11.2562C122.347 11.3495 122.394 11.4695 122.394 11.6162V24.5962C122.394 24.7429 122.347 24.8695 122.254 24.9762C122.161 25.0695 122.041 25.1162 121.894 25.1162H119.754C119.461 25.1162 119.241 24.9895 119.094 24.7362L114.214 17.3362V24.6162C114.214 24.7495 114.167 24.8695 114.074 24.9762C113.981 25.0695 113.861 25.1162 113.714 25.1162H111.314Z" fill="#0B132A"/>
<path d="M31.1473 13.6477L31.1255 13.626C31.1238 13.6247 31.1224 13.6231 31.1215 13.6212L17.5006 0L3.87983 13.6209C3.87826 13.6225 3.8758 13.6256 3.8758 13.6256L3.85333 13.6474C1.77053 15.7419 0.447586 18.4725 0.0948177 21.4052C-0.25795 24.3379 0.379698 27.3044 1.90639 29.8331C3.43309 32.3619 5.76122 34.3077 8.52069 35.3612C11.2802 36.4147 14.3126 36.5157 17.136 35.6477C17.3735 35.5751 17.6275 35.5751 17.8651 35.6477C20.6882 36.5153 23.7205 36.4144 26.4798 35.3607C29.2391 34.307 31.567 32.3613 33.0936 29.8328C34.6202 27.3042 35.2579 24.3379 34.9053 21.4054C34.5526 18.4728 33.2299 15.7422 31.1473 13.6477ZM8.7232 22.6298C8.65689 22.6961 8.6043 22.7749 8.56844 22.8615C8.53257 22.948 8.5141 23.0408 8.51412 23.1346C8.53835 25.5386 9.21776 27.8904 10.4792 29.9371C10.5079 29.9835 10.5211 30.0379 10.517 30.0922C10.513 30.1465 10.4918 30.1982 10.4566 30.2399C10.4213 30.2816 10.3738 30.311 10.3209 30.324C10.2679 30.337 10.2122 30.333 10.1616 30.3124C9.21332 29.9135 8.35182 29.3336 7.62531 28.6053C6.13646 27.1162 5.29946 25.097 5.2981 22.9912C5.29675 20.8855 6.13117 18.8652 7.61812 17.3743L17.5006 7.49273L27.3826 17.3743C28.8698 18.865 29.7045 20.8853 29.703 22.9912C29.7018 25.097 28.8647 27.1162 27.3757 28.6053C26.6492 29.3336 25.7877 29.9135 24.8396 30.3124C24.7889 30.333 24.7332 30.337 24.6802 30.324C24.6273 30.311 24.5798 30.2814 24.5445 30.2399C24.5093 30.1982 24.488 30.1465 24.484 30.092C24.4799 30.0377 24.4931 29.9833 24.5218 29.9369C25.7835 27.8904 26.4633 25.5386 26.4879 23.1346C26.4879 23.0408 26.4692 22.948 26.4332 22.8613C26.3971 22.7746 26.3444 22.696 26.2779 22.6296L21.6037 17.6717C21.5571 17.6329 21.4985 17.6116 21.4378 17.6116C21.3773 17.6116 21.3186 17.6329 21.2721 17.6717C21.2255 17.7104 21.1942 17.7644 21.1833 17.824C21.1724 17.8837 21.1828 17.945 21.2127 17.9978C23.0281 21.283 21.467 26.0017 18.8637 28.6053L18.85 28.6191C18.4907 28.9745 18.0056 29.1738 17.5002 29.1736C16.9948 29.1734 16.5098 28.9738 16.1508 28.6182L16.1382 28.6053C13.5339 26.0017 11.9736 21.2835 13.7893 17.9985C13.8192 17.9457 13.8296 17.8844 13.8187 17.8247C13.8079 17.7651 13.7764 17.7111 13.7299 17.6724C13.6834 17.6336 13.6247 17.6123 13.5642 17.6123C13.5036 17.6123 13.4449 17.6336 13.3984 17.6724L8.7232 22.6298Z" fill="#F53838"/>
</svg>
